<svg width="153" height="124" viewBox="0 0 153 124" fill="none" xmlns="http://www.w3.org/2000/svg">
<path fill-rule="evenodd" clip-rule="evenodd" d="M34.365 0H44.1924L117.052 7.06315e-06C126.787 7.06315e-06 135.324 9.05618 135.324 15.7488V51.818L152.995 62.0933L135.324 72.3686V105.465C135.324 114.944 125.393 124 115.659 124L44.1924 124L42.7271 124L34.365 124C27.1685 124 17.6707 114.944 17.6707 106.858V72.182L0 61.9067L17.6707 51.6314V17.1421C17.6707 9.05618 27.1685 0 34.365 0Z" fill="#F4F5F4"/>
<path d="M51.0815 9.00602V114.994H61.6064V97.2556H65.7454C73.9939 97.2556 79.9363 91.4315 79.9363 83.4195V9.00602H51.0519H51.0815ZM69.4114 83.2717C69.4114 85.9029 67.7854 87.8837 65.6272 87.8837H61.6064V18.2301H69.4114V83.2717Z" fill="#1E2220"/>
<path d="M88.1891 10.5428V19.6454H91.6923V113.457H101.944V10.5428H88.1891Z" fill="#1E2220"/>
<path d="M35.7089 50.2757V21.322C35.7089 18.181 37.4504 15.9729 39.9384 15.9729H42.7996V6.26987H39.9384C30.2043 6.26987 24.6374 11.7434 24.6374 21.322V55.8114L12.5397 61.9069L24.6374 68.0024V102.678C24.6374 112.226 30.2043 117.731 39.9384 117.731H42.7996V108.028H39.9384C37.4504 108.028 35.7089 105.819 35.7089 102.678V73.5382V67.9713L23.6423 61.9069L35.7089 55.8425V50.2757Z" fill="#1E2220"/>
<path d="M140.456 62.0935L128.358 55.998V21.3221C128.358 11.7745 122.791 6.26988 113.057 6.26988H110.196V15.9729H113.057C115.545 15.9729 117.287 18.181 117.287 21.3221V50.4623V56.0291L129.353 62.0935L117.287 68.1579V73.7248V102.678C117.287 105.819 115.545 108.028 113.057 108.028H110.196V117.731H113.057C122.791 117.731 128.358 112.257 128.358 102.678V68.189L140.456 62.0935Z" fill="#1E2220"/>
</svg>
