<svg width="300" height="80" viewBox="0 0 300 80" fill="none" xmlns="http://www.w3.org/2000/svg">
<path d="M16.697 79.0001V65.6365H26.6061V67.9395H19.6061V71.1213H25.9697V73.394H19.6061V76.6971H26.7273V79.0001H16.697Z" fill="#C7C8C7" style="fill:#C7C8C7;fill:color(display-p3 0.7804 0.7843 0.7804);fill-opacity:1;"/>
<path d="M30.5454 79.0001V65.6365H36.8787C37.8484 65.6365 38.6969 65.8183 39.4545 66.1516C40.1818 66.485 40.7878 66.9698 41.1818 67.5759C41.606 68.1819 41.8181 68.9092 41.8181 69.7577V70.0304C41.8181 70.8486 41.606 71.5759 41.1818 72.1819C40.7575 72.788 40.1515 73.2728 39.4242 73.6062C38.6969 73.9395 37.8484 74.1213 36.909 74.1213H33.4848V79.0001H30.5757H30.5454ZM33.4242 71.8183H36.5757C37.2727 71.8183 37.8181 71.6668 38.2424 71.3334C38.6666 71.0001 38.8787 70.5456 38.8787 69.9698V69.788C38.8787 69.2122 38.6666 68.7577 38.2424 68.4244C37.8181 68.091 37.2727 67.9395 36.5757 67.9395H33.4242V71.8183Z" fill="#C7C8C7" style="fill:#C7C8C7;fill:color(display-p3 0.7804 0.7843 0.7804);fill-opacity:1;"/>
<path d="M43.3939 79.0001L47.4243 65.6365H52.4849L56.5455 79.0001H53.5455L52.697 76.0607H47.2121L46.3636 79.0001H43.3636H43.3939ZM47.8788 73.7274H52L50.1212 67.2122H49.7273L47.8485 73.7274H47.8788Z" fill="#C7C8C7" style="fill:#C7C8C7;fill:color(display-p3 0.7804 0.7843 0.7804);fill-opacity:1;"/>
<path d="M60.0303 79.0001V65.6365H66.7273C67.697 65.6365 68.5455 65.788 69.2424 66.091C69.9697 66.3941 70.5152 66.788 70.9091 67.3334C71.303 67.8789 71.5152 68.485 71.5152 69.2122V69.4547C71.5152 70.2425 71.303 70.9092 70.8485 71.3941C70.3939 71.8789 69.8788 72.2425 69.2121 72.485V72.8183C69.7879 72.8183 70.2424 73.0304 70.5758 73.3334C70.9091 73.6668 71.0606 74.091 71.0606 74.6365V79.0001H68.1515V75.0001C68.1515 74.6971 68.0606 74.4547 67.8788 74.2425C67.697 74.0607 67.3939 73.9698 66.9697 73.9698H62.9091V79.0001H60H60.0303ZM62.9394 71.6668H66.4242C67.1212 71.6668 67.6667 71.5153 68.0303 71.1819C68.4242 70.8486 68.6061 70.4244 68.6061 69.8789V69.6971C68.6061 69.1516 68.4242 68.7274 68.0303 68.394C67.6364 68.0607 67.1212 67.9092 66.3939 67.9092H62.9091V71.6365L62.9394 71.6668Z" fill="#C7C8C7" style="fill:#C7C8C7;fill:color(display-p3 0.7804 0.7843 0.7804);fill-opacity:1;"/>
<path d="M79.1212 79.0001V67.9395H74.6364V65.6365H86.5151V67.9395H82.0303V79.0001H79.1212Z" fill="#C7C8C7" style="fill:#C7C8C7;fill:color(display-p3 0.7804 0.7843 0.7804);fill-opacity:1;"/>
<path d="M90.1515 79.0001V65.6365H95.5454L98.1818 77.2728H98.5757L101.242 65.6365H106.636V79.0001H103.818V67.485H103.424L100.788 79.0001H96L93.3636 67.485H92.9697V79.0001H90.1515Z" fill="#C7C8C7" style="fill:#C7C8C7;fill:color(display-p3 0.7804 0.7843 0.7804);fill-opacity:1;"/>
<path d="M111.182 79.0001V65.6365H121.091V67.9395H114.091V71.1213H120.455V73.394H114.091V76.6971H121.212V79.0001H111.182Z" fill="#C7C8C7" style="fill:#C7C8C7;fill:color(display-p3 0.7804 0.7843 0.7804);fill-opacity:1;"/>
<path d="M125.03 79.0001V65.6365H130.545L133.606 77.2728H134V65.6365H136.848V79.0001H131.333L128.273 67.3637H127.879V79.0001H125.03Z" fill="#C7C8C7" style="fill:#C7C8C7;fill:color(display-p3 0.7804 0.7843 0.7804);fill-opacity:1;"/>
<path d="M144.97 79.0001V67.9395H140.485V65.6365H152.333V67.9395H147.848V79.0001H144.97Z" fill="#C7C8C7" style="fill:#C7C8C7;fill:color(display-p3 0.7804 0.7843 0.7804);fill-opacity:1;"/>
<path d="M168.515 79.2726C166.576 79.2726 165.03 78.8181 163.909 77.8787C162.758 76.9696 162.182 75.6363 162.182 73.909V70.6969C162.182 68.9696 162.758 67.6666 163.909 66.7272C165.061 65.8181 166.576 65.3333 168.515 65.3333C170.455 65.3333 172 65.7878 173.121 66.7272C174.273 67.6363 174.849 68.9696 174.849 70.6969V73.909C174.849 75.6363 174.273 76.9393 173.121 77.8787C171.97 78.7878 170.455 79.2726 168.515 79.2726ZM168.515 76.9999C169.606 76.9999 170.455 76.7272 171.03 76.1817C171.636 75.6363 171.939 74.909 171.939 73.9999V70.6363C171.939 69.7272 171.636 68.9999 171.03 68.4545C170.424 67.909 169.576 67.6363 168.515 67.6363C167.455 67.6363 166.606 67.909 166 68.4545C165.394 68.9999 165.091 69.7272 165.091 70.6363V73.9999C165.091 74.909 165.394 75.6363 166 76.1817C166.606 76.7272 167.455 76.9999 168.515 76.9999Z" fill="#C7C8C7" style="fill:#C7C8C7;fill:color(display-p3 0.7804 0.7843 0.7804);fill-opacity:1;"/>
<path d="M179.061 79.0001V65.6365H188.727V67.9395H181.97V71.1516H188.212V73.4547H181.97V79.0001H179.061Z" fill="#C7C8C7" style="fill:#C7C8C7;fill:color(display-p3 0.7804 0.7843 0.7804);fill-opacity:1;"/>
<path d="M215.97 79.0001V65.6365H225.879V67.9395H218.879V71.1213H225.273V73.394H218.879V76.6971H226V79.0001H215.97Z" fill="#C7C8C7" style="fill:#C7C8C7;fill:color(display-p3 0.7804 0.7843 0.7804);fill-opacity:1;"/>
<path d="M229.818 79.0001V65.6365H239.485V67.9395H232.727V71.1516H238.97V73.4547H232.727V79.0001H229.818Z" fill="#C7C8C7" style="fill:#C7C8C7;fill:color(display-p3 0.7804 0.7843 0.7804);fill-opacity:1;"/>
<path d="M243.212 79.0001V65.6365H253.091V67.9395H246.091V71.1213H252.485V73.394H246.091V76.6971H253.212V79.0001H243.212Z" fill="#C7C8C7" style="fill:#C7C8C7;fill:color(display-p3 0.7804 0.7843 0.7804);fill-opacity:1;"/>
<path d="M257.03 79.0001V65.6365H262.545L265.606 77.2728H266V65.6365H268.848V79.0001H263.333L260.273 67.3637H259.879V79.0001H257.03Z" fill="#C7C8C7" style="fill:#C7C8C7;fill:color(display-p3 0.7804 0.7843 0.7804);fill-opacity:1;"/>
<path d="M278.758 79.2726C277.576 79.2726 276.515 79.0908 275.606 78.7272C274.697 78.3635 274 77.8181 273.485 77.1514C272.97 76.4544 272.727 75.6363 272.727 74.6666V74.1211H275.576V74.6666C275.576 75.4544 275.849 76.0605 276.424 76.4847C277 76.8787 277.788 77.0908 278.758 77.0908C279.727 77.0908 280.485 76.909 281 76.5756C281.485 76.2423 281.727 75.7878 281.727 75.2726C281.727 74.7575 281.606 74.6059 281.364 74.3635C281.121 74.1211 280.758 73.9393 280.303 73.7878C279.849 73.6363 279.273 73.515 278.606 73.3635L278.091 73.2726C277.03 73.0605 276.121 72.8181 275.364 72.4847C274.606 72.1817 274.03 71.7575 273.636 71.2423C273.242 70.7272 273.03 70.0605 273.03 69.2423C273.03 68.4241 273.242 67.7272 273.697 67.1514C274.152 66.5756 274.788 66.1211 275.576 65.8181C276.394 65.515 277.333 65.3635 278.455 65.3635C279.576 65.3635 280.545 65.515 281.394 65.8484C282.242 66.1817 282.939 66.6666 283.424 67.3029C283.909 67.9393 284.152 68.7575 284.152 69.7272V70.3029H281.303V69.7272C281.303 69.212 281.182 68.8181 280.97 68.4847C280.727 68.1817 280.424 67.9393 280 67.7878C279.576 67.6363 279.061 67.5756 278.485 67.5756C277.606 67.5756 276.97 67.7272 276.545 67.9999C276.121 68.3029 275.909 68.6666 275.909 69.1817C275.909 69.6969 276 69.7878 276.212 70.0302C276.424 70.2726 276.697 70.4544 277.091 70.606C277.485 70.7575 278 70.8787 278.606 70.9999L279.121 71.0908C280.212 71.3029 281.182 71.5453 282 71.8787C282.818 72.1817 283.455 72.6059 283.909 73.1514C284.364 73.6666 284.576 74.3332 284.576 75.1514C284.576 75.9696 284.333 76.6666 283.849 77.3029C283.364 77.909 282.697 78.3938 281.818 78.7575C280.939 79.1211 279.909 79.2726 278.727 79.2726" fill="#C7C8C7" style="fill:#C7C8C7;fill:color(display-p3 0.7804 0.7843 0.7804);fill-opacity:1;"/>
<path d="M288.394 79.0001V65.6365H298.273V67.9395H291.273V71.1213H297.667V73.394H291.273V76.6971H298.424V79.0001H288.394Z" fill="#C7C8C7" style="fill:#C7C8C7;fill:color(display-p3 0.7804 0.7843 0.7804);fill-opacity:1;"/>
<path d="M11.0303 67.0001C9.93942 66.091 8.39397 65.6365 6.30306 65.6365H0.969727V67.8486H1.96973V76.788H0.969727V79.0001H6.30306C8.36367 79.0001 9.93942 78.5456 11.0303 77.6365C12.1212 76.7274 12.6364 75.3637 12.6364 73.5759V71.0607C12.6364 69.2728 12.0909 67.9092 11.0303 67.0001ZM9.7273 73.6668C9.7273 74.6365 9.45458 75.394 8.90912 75.9092C8.36367 76.4547 7.51518 76.7274 6.33336 76.7274H4.87882V67.9395H6.33336C7.51518 67.9395 8.36367 68.2122 8.90912 68.7274C9.45458 69.2425 9.7273 70.0001 9.7273 71.0001V73.6668Z" fill="#C7C8C7" style="fill:#C7C8C7;fill:color(display-p3 0.7804 0.7843 0.7804);fill-opacity:1;"/>
<path d="M210.303 67.0001C209.212 66.091 207.667 65.6365 205.576 65.6365H200.242V67.8486H201.242V76.788H200.242V79.0001H205.576C207.636 79.0001 209.212 78.5456 210.303 77.6365C211.394 76.7274 211.909 75.3637 211.909 73.5759V71.0607C211.909 69.2728 211.364 67.9092 210.303 67.0001ZM209 73.6668C209 74.6365 208.727 75.394 208.182 75.9092C207.636 76.4547 206.788 76.7274 205.606 76.7274H204.152V67.9395H205.606C206.788 67.9395 207.636 68.2122 208.182 68.7274C208.727 69.2425 209 70.0001 209 71.0001V73.6668Z" fill="#C7C8C7" style="fill:#C7C8C7;fill:color(display-p3 0.7804 0.7843 0.7804);fill-opacity:1;"/>
<path d="M14.0909 1.12109C18.7272 1.12109 21.7272 3.75746 21.7272 9.39382V25.3635C21.7272 30.9696 18.6969 33.6362 14.0909 33.6362H4.90903V43.5453C4.90903 44.0908 4.606 44.2726 4.18176 44.2726H1.78782C1.30297 44.2726 1.06055 44.0908 1.06055 43.5453V1.84837C1.06055 1.30291 1.30297 1.12109 1.78782 1.12109H14.1212H14.0909ZM4.90903 4.48473V30.2423H13.1818C16.3939 30.2423 17.8787 28.7575 17.8787 25.5453V9.12109C17.8787 5.96958 16.3939 4.48473 13.1818 4.48473H4.90903Z" fill="#F4F5F4" style="fill:#F4F5F4;fill:color(display-p3 0.9569 0.9608 0.9569);fill-opacity:1;"/>
<path d="M45.5151 40.8787C45.9394 40.8787 46.1818 41.1817 46.0606 41.6059L45.6969 43.6362C45.6363 44.0605 45.3939 44.2423 44.9091 44.2423H28.7575C28.2727 44.2423 28.0303 44.0605 28.0303 43.515V1.84837C28.0303 1.30291 28.2727 1.12109 28.7575 1.12109H31.1515C31.5757 1.12109 31.8788 1.30291 31.8788 1.84837V40.8787H45.5151Z" fill="#F4F5F4" style="fill:#F4F5F4;fill:color(display-p3 0.9569 0.9608 0.9569);fill-opacity:1;"/>
<path d="M58.1515 0.727295H64.1212C68.7576 0.727295 71.7576 3.36366 71.7576 9.00002V43.5152C71.7576 44.0606 71.4546 44.2424 71.0303 44.2424H68.6364C68.1515 44.2424 67.9091 44.0606 67.9091 43.5152V31.7273H54.2727V43.5152C54.2727 44.0606 54.0303 44.2424 53.5455 44.2424H51.3334C50.8485 44.2424 50.6061 44.0606 50.6061 43.5152V9.00002C50.6061 3.39396 53.5758 0.727295 58.1818 0.727295M54.2727 8.7576V28.4243H67.9091V8.7576C67.9091 5.60608 66.4243 4.12123 63.2121 4.12123H58.9697C55.7576 4.12123 54.2727 5.66669 54.2727 8.7576Z" fill="#F4F5F4" style="fill:#F4F5F4;fill:color(display-p3 0.9569 0.9608 0.9569);fill-opacity:1;"/>
<path d="M76.5151 4.48473C76.0909 4.48473 75.8485 4.1817 75.9697 3.75746L76.2727 1.72715C76.3939 1.30291 76.6363 1.12109 77.0606 1.12109H96.7879C97.2121 1.12109 97.4545 1.36352 97.3333 1.84837L97.0303 3.87867C96.9091 4.30291 96.6667 4.48473 96.2424 4.48473H88.606V43.515C88.606 44.0605 88.3636 44.2423 87.8788 44.2423H85.4848C85 44.2423 84.7576 44.0605 84.7576 43.515V4.48473H76.5454H76.5151Z" fill="#F4F5F4" style="fill:#F4F5F4;fill:color(display-p3 0.9569 0.9608 0.9569);fill-opacity:1;"/>
<path d="M105.242 44.2423H102.848C102.364 44.2423 102.121 44.0605 102.121 43.515V1.84837C102.121 1.30291 102.364 1.12109 102.848 1.12109H119.97C120.455 1.12109 120.636 1.36352 120.515 1.84837L120.212 3.87867C120.091 4.30291 119.848 4.48473 119.424 4.48473H106V21.2423H117.212C117.636 21.2423 117.879 21.4847 117.758 21.9696L117.394 23.9393C117.333 24.3635 117.091 24.5453 116.606 24.5453H106V43.4544C106 43.9999 105.697 44.1817 105.273 44.1817" fill="#F4F5F4" style="fill:#F4F5F4;fill:color(display-p3 0.9569 0.9608 0.9569);fill-opacity:1;"/>
<path d="M124.485 36.3637V9.00002C124.485 3.39396 127.455 0.727295 132.061 0.727295H138.545C143.182 0.727295 146.121 3.36366 146.121 9.00002V36.3637C146.121 41.9697 143.152 44.6364 138.545 44.6364H132.061C127.424 44.6364 124.485 42 124.485 36.3637ZM128.364 8.7576V36.6061C128.364 39.7576 129.849 41.2424 133 41.2424H137.636C140.788 41.2424 142.273 39.7576 142.273 36.6061V8.7576C142.273 5.60608 140.788 4.12123 137.636 4.12123H133C129.849 4.12123 128.364 5.60608 128.364 8.7576Z" fill="#F4F5F4" style="fill:#F4F5F4;fill:color(display-p3 0.9569 0.9608 0.9569);fill-opacity:1;"/>
<path d="M166.212 1.12109C170.849 1.12109 173.849 3.75746 173.849 9.39382V23.1514C173.849 28.1514 171.515 30.7878 167.758 31.1514V31.515L174.727 43.5453C174.97 43.8484 174.788 44.2726 174.364 44.2726H171.667C171.242 44.2726 170.879 44.1514 170.606 43.6059L163.818 31.7575H157.03V43.5453C157.03 44.0908 156.727 44.2726 156.303 44.2726H153.909C153.424 44.2726 153.182 44.0908 153.182 43.5453V1.84837C153.182 1.30291 153.424 1.12109 153.909 1.12109H166.242H166.212ZM157.03 4.48473V28.3938H165.303C168.515 28.3938 170 26.909 170 23.6969V9.12109C170 5.96958 168.515 4.48473 165.303 4.48473H157.03Z" fill="#F4F5F4" style="fill:#F4F5F4;fill:color(display-p3 0.9569 0.9608 0.9569);fill-opacity:1;"/>
<path d="M181.273 1.12109H184C184.485 1.12109 184.788 1.36352 184.909 1.84837L193.485 28.9696H193.849L202.424 1.84837C202.545 1.36352 202.849 1.12109 203.424 1.12109H206.212C206.697 1.12109 206.939 1.30291 206.939 1.84837V43.515C206.939 44.0605 206.697 44.2423 206.212 44.2423H203.818C203.394 44.2423 203.091 44.0605 203.091 43.515V12.3938H202.727L195.758 33.909C195.636 34.3938 195.333 34.6362 194.758 34.6362H192.545C192 34.6362 191.697 34.3938 191.545 33.909L184.636 12.3938H184.273V43.515C184.273 44.0605 184.03 44.2423 183.545 44.2423H181.333C180.849 44.2423 180.606 44.0605 180.606 43.515V1.84837C180.606 1.30291 180.849 1.12109 181.333 1.12109" fill="#F4F5F4" style="fill:#F4F5F4;fill:color(display-p3 0.9569 0.9608 0.9569);fill-opacity:1;"/>
<path d="M219.242 36.3637V9.00002C219.242 3.39396 222.273 0.727295 226.879 0.727295H234.576C239.212 0.727295 242.212 3.36366 242.212 9.00002V36.3637C242.212 41.9697 239.182 44.6364 234.576 44.6364H226.879C222.242 44.6364 219.242 42 219.242 36.3637ZM226.121 9.00002V36.3637C226.121 37.9697 226.849 38.697 228.455 38.697H232.939C234.545 38.697 235.273 37.9697 235.273 36.3637V9.00002C235.273 7.39396 234.545 6.66669 232.939 6.66669H228.455C226.849 6.66669 226.121 7.39396 226.121 9.00002Z" fill="#F4F5F4" style="fill:#F4F5F4;fill:color(display-p3 0.9569 0.9608 0.9569);fill-opacity:1;"/>
<path d="M255.152 43.3938C255.152 43.9999 254.848 44.2423 254.303 44.2423H249.364C248.818 44.2423 248.515 43.9999 248.515 43.3938V1.96958C248.515 1.36352 248.818 1.12109 249.364 1.12109H253.485C254.03 1.12109 254.485 1.36352 254.727 1.96958L264.03 25.1514H264.455V1.96958C264.455 1.36352 264.697 1.12109 265.242 1.12109H270.182C270.788 1.12109 271.03 1.36352 271.03 1.96958V43.3938C271.03 43.9999 270.788 44.2423 270.182 44.2423H266.667C266.121 44.2423 265.667 43.9999 265.424 43.3938L255.576 18.8484H255.152V43.3938Z" fill="#F4F5F4" style="fill:#F4F5F4;fill:color(display-p3 0.9569 0.9608 0.9569);fill-opacity:1;"/>
<path d="M277.909 43.3938V1.96958C277.909 1.36352 278.212 1.12109 278.758 1.12109H297.606C298.152 1.12109 298.394 1.42412 298.333 1.96958L297.788 6.212C297.727 6.69685 297.364 6.99988 296.849 6.99988H284.758V19.3332H294.061C294.606 19.3332 294.849 19.6969 294.788 20.1817L294.242 24.4241C294.182 24.909 293.818 25.212 293.303 25.212H284.727V38.2726H297.546C298.091 38.2726 298.333 38.6362 298.273 39.1211L297.727 43.3635C297.667 43.8484 297.303 44.1514 296.788 44.1514H278.667C278.121 44.1514 277.818 43.909 277.818 43.3029" fill="#F4F5F4" style="fill:#F4F5F4;fill:color(display-p3 0.9569 0.9608 0.9569);fill-opacity:1;"/>
<path d="M298.394 54H1.03027V55.0303H298.394V54Z" fill="#C7C8C7" style="fill:#C7C8C7;fill:color(display-p3 0.7804 0.7843 0.7804);fill-opacity:1;"/>
</svg>
