<svg width="184" height="48" viewBox="0 0 184 48" fill="none" xmlns="http://www.w3.org/2000/svg">
<g clip-path="url(#clip0_387_156)">
<path d="M16.0457 0.518799V47.2586H20.7017V39.4377H22.5196C26.1553 39.4377 28.7894 36.8617 28.7894 33.3404V0.518799H16.0457ZM24.1334 33.2848C24.1334 34.4339 23.41 35.3234 22.4639 35.3234H20.6831V4.59602H24.1334V33.2848Z" fill="#F4F5F4" style="fill:#F4F5F4;fill:color(display-p3 0.9569 0.9608 0.9569);fill-opacity:1;"/>
<path d="M32.1284 0.537354V4.65164H33.7237V47.2586H38.3797V0.537354H32.1284Z" fill="#F4F5F4" style="fill:#F4F5F4;fill:color(display-p3 0.9569 0.9608 0.9569);fill-opacity:1;"/>
<path d="M9.72013 18.9775V6.83851C9.72013 5.52268 10.4436 4.59604 11.4824 4.59604H12.6881V0.537354H11.4824C7.4014 0.537354 5.06412 2.83542 5.06412 6.85704V21.3126L0 23.8516L5.08267 26.4092V40.9389C5.08267 44.942 7.41995 47.2586 11.5009 47.2586H12.7067V43.1814H11.5009C10.4621 43.1814 9.73868 42.2547 9.73868 40.9389V28.7258V26.3906L4.67457 23.8516L9.73868 21.3126V18.9775H9.72013Z" fill="#F4F5F4" style="fill:#F4F5F4;fill:color(display-p3 0.9569 0.9608 0.9569);fill-opacity:1;"/>
<path d="M54.4252 23.9258L49.3425 21.3682V6.83849C49.3425 2.8354 47.0052 0.518799 42.9242 0.518799H41.7185V4.59602H42.9242C43.963 4.59602 44.6865 5.52266 44.6865 6.83849V19.0516V21.3868L49.7506 23.9258L44.6865 26.4647V28.7999V40.9389C44.6865 42.2547 43.963 43.1814 42.9242 43.1814H41.7185V47.2586H42.9242C47.0052 47.2586 49.3425 44.9605 49.3425 40.9389V26.4833L54.4252 23.9258Z" fill="#F4F5F4" style="fill:#F4F5F4;fill:color(display-p3 0.9569 0.9608 0.9569);fill-opacity:1;"/>
<path d="M72.6784 15.5119C74.4777 15.5119 75.6463 16.5498 75.6463 18.7181V24.9266C75.6463 27.1135 74.4777 28.1328 72.6784 28.1328H69.0982V31.9876C69.0982 32.21 68.9869 32.2841 68.8014 32.2841H67.8739C67.6884 32.2841 67.5771 32.21 67.5771 31.9876V15.7899C67.5771 15.5675 67.6699 15.4934 67.8739 15.4934H72.6784V15.5119ZM69.0982 16.8278V26.8355H72.3074C73.5502 26.8355 74.1253 26.261 74.1253 25.0193V18.6255C74.1253 17.4023 73.5502 16.8278 72.3074 16.8278H69.0982Z" fill="#F4F5F4" style="fill:#F4F5F4;fill:color(display-p3 0.9569 0.9608 0.9569);fill-opacity:1;"/>
<path d="M84.9028 30.9498C85.0697 30.9498 85.1625 31.061 85.1254 31.2463L84.977 32.0432C84.9584 32.21 84.8657 32.2841 84.6616 32.2841H78.3732C78.1877 32.2841 78.0764 32.21 78.0764 31.9876V15.7899C78.0764 15.5675 78.1692 15.4934 78.3732 15.4934H79.3007C79.4677 15.4934 79.5975 15.5675 79.5975 15.7899V30.9498H84.9028Z" fill="#F4F5F4" style="fill:#F4F5F4;fill:color(display-p3 0.9569 0.9608 0.9569);fill-opacity:1;"/>
<path d="M89.8186 15.3638H92.1373C93.9366 15.3638 95.1053 16.4016 95.1053 18.5699V31.9877C95.1053 32.2101 94.994 32.2842 94.8085 32.2842H93.881C93.6955 32.2842 93.5842 32.2101 93.5842 31.9877V27.4101H88.2789V31.9877C88.2789 32.2101 88.1862 32.2842 87.9821 32.2842H87.1103C86.9248 32.2842 86.8135 32.2101 86.8135 31.9877V18.5699C86.8135 16.3831 87.9636 15.3638 89.7629 15.3638H89.8186ZM88.316 18.4773V26.1128H93.6213V18.4773C93.6213 17.2541 93.0462 16.6796 91.8034 16.6796H90.1525C88.9096 16.6796 88.3346 17.2726 88.3346 18.4773H88.316Z" fill="#F4F5F4" style="fill:#F4F5F4;fill:color(display-p3 0.9569 0.9608 0.9569);fill-opacity:1;"/>
<path d="M96.9602 16.8278C96.7933 16.8278 96.7005 16.7166 96.7376 16.5312L96.8489 15.7343C96.9046 15.5675 96.9973 15.4934 97.1643 15.4934H104.844C105.011 15.4934 105.104 15.5861 105.067 15.7899L104.955 16.5868C104.9 16.7536 104.807 16.8278 104.64 16.8278H101.672V31.9876C101.672 32.21 101.579 32.2841 101.375 32.2841H100.448C100.262 32.2841 100.151 32.21 100.151 31.9876V16.8278H96.9602Z" fill="#F4F5F4" style="fill:#F4F5F4;fill:color(display-p3 0.9569 0.9608 0.9569);fill-opacity:1;"/>
<path d="M108.146 32.2841H107.218C107.033 32.2841 106.921 32.21 106.921 31.9876V15.7899C106.921 15.5675 107.014 15.4934 107.218 15.4934H113.878C114.063 15.4934 114.137 15.5861 114.1 15.7899L113.989 16.5868C113.933 16.7536 113.84 16.8278 113.674 16.8278H108.442V23.3513H112.802C112.969 23.3513 113.061 23.444 113.024 23.6478L112.876 24.4077C112.857 24.5745 112.765 24.6486 112.561 24.6486H108.442V32.0062C108.442 32.2285 108.331 32.3027 108.146 32.3027V32.2841Z" fill="#F4F5F4" style="fill:#F4F5F4;fill:color(display-p3 0.9569 0.9608 0.9569);fill-opacity:1;"/>
<path d="M115.621 29.2078V18.5699C115.621 16.3831 116.771 15.3638 118.571 15.3638H121.094C122.893 15.3638 124.043 16.4016 124.043 18.5699V29.2078C124.043 31.3947 122.893 32.414 121.094 32.414H118.571C116.771 32.414 115.621 31.3761 115.621 29.2078ZM117.124 18.4773V29.3005C117.124 30.5236 117.699 31.0981 118.923 31.0981H120.723C121.947 31.0981 122.522 30.5236 122.522 29.3005V18.4773C122.522 17.2541 121.947 16.6796 120.723 16.6796H118.923C117.699 16.6796 117.124 17.2541 117.124 18.4773Z" fill="#F4F5F4" style="fill:#F4F5F4;fill:color(display-p3 0.9569 0.9608 0.9569);fill-opacity:1;"/>
<path d="M131.852 15.512C133.652 15.512 134.82 16.5498 134.82 18.7181V24.0556C134.82 26.0015 133.911 27.0208 132.446 27.1691V27.3174L135.154 31.9876C135.247 32.0988 135.173 32.2842 135.006 32.2842H133.949C133.782 32.2842 133.633 32.2286 133.54 32.0247L130.906 27.4286H128.272V32.0062C128.272 32.2286 128.161 32.3027 127.976 32.3027H127.048C126.863 32.3027 126.751 32.2286 126.751 32.0062V15.8085C126.751 15.5861 126.844 15.512 127.048 15.512H131.852ZM128.291 16.8278V26.1313H131.5C132.743 26.1313 133.318 25.5568 133.318 24.3151V18.644C133.318 17.4208 132.743 16.8463 131.5 16.8463H128.291V16.8278Z" fill="#F4F5F4" style="fill:#F4F5F4;fill:color(display-p3 0.9569 0.9608 0.9569);fill-opacity:1;"/>
<path d="M137.714 15.512H138.772C138.957 15.512 139.087 15.6046 139.124 15.8085L142.463 26.3537H142.611L145.95 15.8085C146.006 15.6232 146.117 15.512 146.34 15.512H147.416C147.601 15.512 147.713 15.5861 147.713 15.8085V32.0062C147.713 32.2286 147.62 32.3027 147.416 32.3027H146.488C146.321 32.3027 146.192 32.2286 146.192 32.0062V19.9042H146.043L143.335 28.2625C143.279 28.4479 143.168 28.5591 142.945 28.5591H142.073C141.851 28.5591 141.74 28.4664 141.684 28.2625L138.994 19.9042H138.846V32.0062C138.846 32.2286 138.753 32.3027 138.549 32.3027H137.677C137.492 32.3027 137.38 32.2286 137.38 32.0062V15.8085C137.38 15.5861 137.473 15.512 137.677 15.512H137.714Z" fill="#F4F5F4" style="fill:#F4F5F4;fill:color(display-p3 0.9569 0.9608 0.9569);fill-opacity:1;"/>
<path d="M152.48 29.2078V18.5699C152.48 16.3831 153.649 15.3638 155.448 15.3638H158.453C160.252 15.3638 161.421 16.4016 161.421 18.5699V29.2078C161.421 31.3947 160.252 32.414 158.453 32.414H155.448C153.649 32.414 152.48 31.3761 152.48 29.2078ZM155.17 18.5699V29.2078C155.17 29.8379 155.467 30.1159 156.079 30.1159H157.822C158.453 30.1159 158.731 29.8194 158.731 29.2078V18.5699C158.731 17.9398 158.434 17.6618 157.822 17.6618H156.079C155.448 17.6618 155.17 17.9584 155.17 18.5699Z" fill="#F4F5F4" style="fill:#F4F5F4;fill:color(display-p3 0.9569 0.9608 0.9569);fill-opacity:1;"/>
<path d="M166.467 31.932C166.467 32.1729 166.355 32.2656 166.133 32.2656H164.222C163.999 32.2656 163.888 32.1729 163.888 31.932V15.827C163.888 15.5861 163.999 15.4934 164.222 15.4934H165.836C166.059 15.4934 166.225 15.5861 166.318 15.827L169.935 24.8339H170.102V15.827C170.102 15.5861 170.195 15.4934 170.418 15.4934H172.328C172.57 15.4934 172.662 15.5861 172.662 15.827V31.932C172.662 32.1729 172.57 32.2656 172.328 32.2656H170.956C170.733 32.2656 170.566 32.1729 170.473 31.932L166.634 22.4062H166.467V31.932Z" fill="#F4F5F4" style="fill:#F4F5F4;fill:color(display-p3 0.9569 0.9608 0.9569);fill-opacity:1;"/>
<path d="M175.315 31.932V15.827C175.315 15.5861 175.426 15.4934 175.649 15.4934H182.995C183.217 15.4934 183.31 15.6046 183.291 15.827L183.069 17.4764C183.05 17.6617 182.902 17.7915 182.716 17.7915H178.023V22.5915H181.64C181.863 22.5915 181.956 22.7397 181.937 22.9251L181.715 24.5745C181.696 24.7598 181.548 24.8895 181.362 24.8895H178.023V29.9675H183.013C183.236 29.9675 183.328 30.1158 183.31 30.3011L183.087 31.9506C183.069 32.1359 182.92 32.2656 182.735 32.2656H175.686C175.463 32.2656 175.352 32.1729 175.352 31.932H175.315Z" fill="#F4F5F4" style="fill:#F4F5F4;fill:color(display-p3 0.9569 0.9608 0.9569);fill-opacity:1;"/>
</g>
<defs>
<clipPath id="clip0_387_156">
<rect width="183.273" height="48" fill="white" style="fill:white;fill-opacity:1;"/>
</clipPath>
</defs>
</svg>
