<svg width="92" height="80" viewBox="0 0 92 80" fill="none" xmlns="http://www.w3.org/2000/svg">
<path d="M27.1234 0.773438V79.8996H34.9939V66.6596H38.0668C44.2127 66.6596 48.6653 62.2986 48.6653 56.3375V0.773438H27.1234ZM40.7948 56.2433C40.7948 58.1886 39.5719 59.6945 37.9727 59.6945H34.9625V7.6758H40.7948V56.2433Z" fill="#F4F5F4" style="fill:#F4F5F4;fill:color(display-p3 0.9569 0.9608 0.9569);fill-opacity:1;"/>
<path d="M54.3094 0.773438V7.73855H57.0061V79.8683H64.8766V0.773438H54.3094Z" fill="#F4F5F4" style="fill:#F4F5F4;fill:color(display-p3 0.9569 0.9608 0.9569);fill-opacity:1;"/>
<path d="M16.4308 31.9909V11.4407C16.4308 9.21315 17.6537 7.64443 19.4097 7.64443H21.4479V0.773438H19.4097C12.5113 0.773438 8.56033 4.66386 8.56033 11.4721V35.9441L0 40.2424L8.59169 44.5721V69.1696C8.59169 75.9465 12.5426 79.8683 19.441 79.8683H21.4792V72.9659H19.441C17.6851 72.9659 16.4622 71.3972 16.4622 69.1696V48.4939V44.5407L7.90184 40.2424L16.4622 35.9441V31.9909H16.4308Z" fill="#F4F5F4" style="fill:#F4F5F4;fill:color(display-p3 0.9569 0.9608 0.9569);fill-opacity:1;"/>
<path d="M92 40.3993L83.4083 36.0696V11.4721C83.4083 4.69524 79.4574 0.773438 72.559 0.773438H70.5208V7.6758H72.559C74.3149 7.6758 75.5378 9.24452 75.5378 11.4721V32.1478V36.101L84.0982 40.3993L75.5378 44.6976V48.6507V69.201C75.5378 71.4285 74.3149 72.9973 72.559 72.9973H70.5208V79.8996H72.559C79.4574 79.8996 83.4083 76.0092 83.4083 69.201V44.7289L92 40.3993Z" fill="#F4F5F4" style="fill:#F4F5F4;fill:color(display-p3 0.9569 0.9608 0.9569);fill-opacity:1;"/>
</svg>
