<svg width="21" height="130" viewBox="0 0 21 130" fill="none"
    xmlns="http://www.w3.org/2000/svg">
    <path d="M1.12793 123.781C1.12793 121.771 2.30788 120.465 4.81526 120.465L11.9244 120.465C14.4318 120.465 15.6118 121.771 15.6118 123.781L15.6118 127.771L20.0366 127.771C20.2873 127.771 20.3611 127.901 20.3611 128.087L20.3611 129.135C20.3611 129.35 20.2726 129.451 20.0366 129.451L1.46716 129.451C1.21643 129.451 1.12793 129.35 1.12793 129.135L1.12793 123.781ZM2.64711 127.771L14.1368 127.771L14.1368 124.183C14.1368 122.79 13.4731 122.144 12.0424 122.144L4.69727 122.144C3.29608 122.144 2.63236 122.79 2.63236 124.183L2.63236 127.771L2.64711 127.771Z" fill="#F4F5F4"/>
    <path d="M18.8565 110.143C18.8565 109.957 18.9893 109.856 19.181 109.899L20.0807 110.057C20.2725 110.086 20.361 110.186 20.361 110.402L20.361 117.407C20.361 117.622 20.2725 117.723 20.0365 117.723L1.46706 117.723C1.21632 117.723 1.14258 117.622 1.14258 117.407L1.14258 116.359C1.14258 116.172 1.23107 116.043 1.46706 116.043L18.8565 116.043L18.8565 110.129L18.8565 110.143Z" fill="#F4F5F4"/>
    <path d="M0.96582 104.66L0.96582 102.061C0.96582 100.052 2.14577 98.7453 4.65315 98.7453L20.0367 98.7453C20.2874 98.7453 20.3612 98.8745 20.3612 99.0611L20.3612 100.109C20.3612 100.324 20.2727 100.425 20.0367 100.425L14.7859 100.425L14.7859 106.339L20.0367 106.339C20.2874 106.339 20.3612 106.44 20.3612 106.655L20.3612 107.617C20.3612 107.832 20.2727 107.933 20.0367 107.933L4.65315 107.933C2.14577 107.933 0.96582 106.655 0.96582 104.645L0.96582 104.66ZM4.53516 106.353L13.2963 106.353L13.2963 100.439L4.53516 100.439C3.13397 100.439 2.47025 101.085 2.47025 102.478L2.47025 104.329C2.47025 105.722 3.16347 106.368 4.53516 106.368L4.53516 106.353Z" fill="#F4F5F4"/>
    <path d="M2.64701 96.6925C2.64701 96.8791 2.51427 96.9796 2.32252 96.9365L1.42282 96.8073C1.23107 96.7499 1.14258 96.6494 1.14258 96.4628L1.14258 87.9071C1.14258 87.7205 1.24582 87.62 1.46706 87.6631L2.36677 87.7923C2.55851 87.8497 2.64701 87.9502 2.64701 88.1368L2.64701 91.4529L20.0365 91.4529C20.2872 91.4529 20.361 91.5533 20.361 91.7687L20.361 92.8166C20.361 93.0319 20.2725 93.1324 20.0365 93.1324L2.64701 93.1324L2.64701 96.6925Z" fill="#F4F5F4"/>
    <path d="M20.361 84.2321L20.361 85.2801C20.361 85.4954 20.2725 85.5959 20.0365 85.5959L1.46706 85.5959C1.21632 85.5959 1.14258 85.4954 1.14258 85.2801L1.14258 77.8441C1.14258 77.6288 1.24582 77.557 1.46706 77.6001L2.36677 77.7293C2.55851 77.7867 2.64701 77.8872 2.64701 78.0738L2.64701 83.902L10.1249 83.902L10.1249 79.0356C10.1249 78.849 10.2282 78.7485 10.4494 78.7915L11.3344 78.9495C11.5261 78.9782 11.6146 79.0787 11.6146 79.294L11.6146 83.8876L20.0512 83.8876C20.302 83.8876 20.3757 84.0168 20.3757 84.2034L20.361 84.2321Z" fill="#F4F5F4"/>
    <path d="M16.8509 75.8918L4.65315 75.8918C2.14577 75.8918 0.96582 74.6142 0.96582 72.6045L0.96582 69.7909C0.96582 67.7811 2.14577 66.5035 4.65315 66.5035L16.8509 66.5035C19.3582 66.5035 20.5382 67.7811 20.5382 69.7909L20.5382 72.6045C20.5382 74.6142 19.3582 75.8918 16.8509 75.8918ZM4.53516 74.2122L16.9541 74.2122C18.3553 74.2122 19.019 73.5663 19.019 72.2025L19.019 70.1928C19.019 68.8291 18.3553 68.1831 16.9541 68.1831L4.53516 68.1831C3.13397 68.1831 2.47025 68.8291 2.47025 70.1928L2.47025 72.2025C2.47025 73.5663 3.13397 74.2122 4.53516 74.2122Z" fill="#F4F5F4"/>
    <path d="M1.12793 57.7901C1.12793 55.7803 2.30788 54.474 4.81526 54.474L10.9362 54.474C13.1634 54.474 14.3433 55.4932 14.5056 57.1154L14.6678 57.1154L20.0218 54.1008C20.1546 54.0003 20.3463 54.0721 20.3463 54.2587L20.3463 55.4358C20.3463 55.6224 20.2873 55.7803 20.0513 55.8952L14.7711 58.838L14.7711 61.7808L20.0218 61.7808C20.2726 61.7808 20.3463 61.91 20.3463 62.0966L20.3463 63.1445C20.3463 63.3598 20.2578 63.4603 20.0218 63.4603L1.46716 63.4603C1.21643 63.4603 1.14268 63.3598 1.14268 63.1445L1.14268 57.7901L1.12793 57.7901ZM2.64711 61.7664L13.3109 61.7664L13.3109 58.1776C13.3109 56.7852 12.6472 56.1392 11.2165 56.1392L4.69727 56.1392C3.29608 56.1392 2.63236 56.7852 2.63236 58.1776L2.63236 61.7664L2.64711 61.7664Z" fill="#F4F5F4"/>
    <path d="M1.12793 51.2585L1.12793 50.0813C1.12793 49.866 1.23117 49.7368 1.45241 49.6794L13.5469 45.9614L13.5469 45.8035L1.46716 42.0855C1.24592 42.0281 1.14268 41.8989 1.14268 41.6549L1.14268 40.4491C1.14268 40.2337 1.23117 40.1332 1.46716 40.1332L20.0366 40.1332C20.2873 40.1332 20.3611 40.2337 20.3611 40.4491L20.3611 41.497C20.3611 41.6836 20.2726 41.8128 20.0366 41.8128L6.15745 41.8128L6.15745 41.9707L15.7445 44.9996C15.9658 45.057 16.069 45.1862 16.069 45.4303L16.069 46.3921C16.069 46.6361 15.9658 46.7653 15.7445 46.8227L6.15745 49.823L6.15745 49.9809L20.0366 49.9809C20.2873 49.9809 20.3611 50.0813 20.3611 50.2967L20.3611 51.2585C20.3611 51.4738 20.2726 51.5743 20.0366 51.5743L1.46716 51.5743C1.21643 51.5743 1.14268 51.4738 1.14268 51.2585L1.12793 51.2585Z" fill="#F4F5F4"/>
    <path d="M16.8509 34.7932L4.65315 34.7932C2.14577 34.7932 0.96582 33.4869 0.96582 31.4772L0.96582 28.1324C0.96582 26.1227 2.14577 24.8164 4.65315 24.8164L16.8509 24.8164C19.3582 24.8164 20.5382 26.1227 20.5382 28.1324L20.5382 31.4772C20.5382 33.4869 19.3582 34.7932 16.8509 34.7932ZM4.65315 31.793L16.8509 31.793C17.5588 31.793 17.8981 31.4772 17.8981 30.7738L17.8981 28.8215C17.8981 28.1324 17.5736 27.8023 16.8509 27.8023L4.65315 27.8023C3.94519 27.8023 3.60595 28.1181 3.60595 28.8215L3.60595 30.7738C3.60595 31.4628 3.93044 31.793 4.65315 31.793Z" fill="#F4F5F4"/>
    <path d="M19.9776 19.2034C20.2578 19.2034 20.3611 19.3326 20.3611 19.5766L20.3611 21.7155C20.3611 21.9595 20.2578 22.0887 19.9776 22.0887L1.51141 22.0887C1.23118 22.0887 1.12793 21.9595 1.12793 21.7155L1.12793 19.9211C1.12793 19.6771 1.23117 19.4905 1.51141 19.39L11.8359 15.3562L11.8359 15.1696L1.51141 15.1696C1.23117 15.1696 1.12793 15.0691 1.12793 14.8251L1.12793 12.6861C1.12793 12.4134 1.23117 12.3129 1.51141 12.3129L19.9776 12.3129C20.2578 12.3129 20.3611 12.4134 20.3611 12.6861L20.3611 14.2078C20.3611 14.4518 20.2578 14.6384 19.9776 14.7389L9.04832 19.0167L9.04832 19.2034L19.9776 19.2034Z" fill="#F4F5F4"/>
    <path d="M19.9776 9.32724L1.51141 9.32724C1.23118 9.32724 1.12793 9.19804 1.12793 8.954L1.12793 0.77157C1.12793 0.527532 1.26067 0.427044 1.51141 0.455755L3.41408 0.699789C3.63532 0.7285 3.76806 0.886405 3.76806 1.10173L3.76806 6.34136L9.26956 6.34136L9.26956 2.30757C9.26956 2.06353 9.4318 1.96304 9.65304 1.99175L11.5557 2.23579C11.7769 2.2645 11.9097 2.42242 11.9097 2.63774L11.9097 6.35572L17.7357 6.35572L17.7357 0.800274C17.7357 0.556237 17.8979 0.45576 18.1192 0.48447L20.0218 0.728505C20.2431 0.757215 20.3758 0.91512 20.3758 1.13045L20.3758 8.99706C20.3758 9.2411 20.2726 9.3703 19.9923 9.3703L19.9776 9.32724Z" fill="#F4F5F4"/>
</svg>
