<svg width="412" height="239" viewBox="0 0 412 239" fill="none" xmlns="http://www.w3.org/2000/svg">
<g clip-path="url(#clip0_764_4936)">
<path d="M152.939 156.095L22.1928 208.893L19.6119 202.645L149.503 147.777L152.939 156.095Z" fill="url(#paint0_linear_764_4936)" style=""/>
<path d="M127.467 166.617L22.1928 208.893L19.6119 202.645L124.031 158.299L127.467 166.617Z" fill="url(#paint1_linear_764_4936)" style=""/>
<path d="M108.844 174.31L22.1928 208.893L19.6119 202.645L105.407 165.992L108.844 174.31Z" fill="url(#paint2_linear_764_4936)" style=""/>
<path d="M89.2495 182.404L22.1928 208.893L19.6119 202.645L85.8134 174.086L89.2495 182.404Z" fill="url(#paint3_linear_764_4936)" style=""/>
<path d="M328.587 95.4394L327.663 95.8212L322.318 82.8817L320.469 83.6453L325.815 96.5848L324.89 96.9666L325.654 98.8151L326.578 98.4333L327.723 101.206L329.572 100.442L328.427 97.6697L329.351 97.2879L328.587 95.4394Z" fill="white" style="fill:white;fill-opacity:1;"/>
<path d="M329.898 100.578L327.588 101.533L326.442 98.7599L325.518 99.1417L324.564 96.8311L325.488 96.4493L320.143 83.5098L322.453 82.5553L327.799 95.4948L328.723 95.113L329.677 97.4236L328.753 97.8054L329.898 100.578ZM327.859 100.88L329.245 100.307L328.1 97.5342L329.024 97.1524L328.452 95.766L327.527 96.1478L322.182 83.2083L320.796 83.781L326.141 96.7205L325.217 97.1023L325.789 98.4887L326.714 98.1069L327.859 100.88Z" fill="black" style="fill:black;fill-opacity:1;"/>
<path d="M332.847 110.991C335.91 109.726 337.367 106.218 336.102 103.155C334.837 100.092 331.329 98.635 328.266 99.9002C325.203 101.165 323.746 104.674 325.011 107.736C326.276 110.799 329.785 112.256 332.847 110.991Z" fill="black" style="fill:black;fill-opacity:1;"/>
<path d="M331.702 108.218C333.233 107.586 333.962 105.831 333.329 104.3C332.697 102.769 330.943 102.04 329.411 102.673C327.88 103.305 327.151 105.06 327.784 106.591C328.417 108.122 330.171 108.851 331.702 108.218Z" fill="white" style="fill:white;fill-opacity:1;"/>
<path d="M213.599 141.857L212.674 142.239L208.093 131.148L206.244 131.912L210.826 143.003L209.902 143.384L210.665 145.233L211.59 144.851L213.498 149.472L215.347 148.709L213.438 144.088L214.362 143.706L213.599 141.857Z" fill="white" style="fill:white;fill-opacity:1;"/>
<path d="M215.673 148.845L213.363 149.799L211.454 145.178L210.53 145.56L209.575 143.249L210.499 142.867L205.918 131.776L208.229 130.822L212.81 141.913L213.734 141.531L214.689 143.841L213.765 144.223L215.673 148.845ZM213.634 149.146L215.02 148.573L213.111 143.952L214.036 143.57L213.463 142.184L212.539 142.566L207.957 131.475L206.571 132.047L211.152 143.138L210.228 143.52L210.801 144.907L211.725 144.525L213.634 149.146Z" fill="black" style="fill:black;fill-opacity:1;"/>
<path d="M219.768 162.03C224.362 160.132 226.548 154.87 224.65 150.276C222.752 145.682 217.49 143.496 212.896 145.394C208.302 147.291 206.116 152.554 208.014 157.148C209.911 161.742 215.174 163.928 219.768 162.03Z" fill="black" style="fill:black;fill-opacity:1;"/>
<path d="M218.05 157.871C220.347 156.922 221.44 154.291 220.491 151.994C219.542 149.697 216.911 148.604 214.614 149.553C212.317 150.502 211.224 153.133 212.173 155.43C213.121 157.727 215.753 158.82 218.05 157.871Z" fill="white" style="fill:white;fill-opacity:1;"/>
<path d="M395.815 46.0294C395.815 46.0294 383.247 43.1064 359.92 49.4966L334.298 45.0414L331.358 44.5247C331.358 44.5247 315.853 48.7658 299.961 57.4942L267.696 72.4456L262.371 77.8909L167.013 119.446L128.214 104.096L103.989 114.103L135.87 140.966L136.091 144.121L112.443 154.971L105.652 162.105C105.652 162.105 121.746 156.538 133.44 156.036L139.367 154.669L141.055 156.136L153.13 156.557L194.3 151.452L207.943 142.571L290.743 107.285L300.689 99.9312L350.759 77.0841L354.838 76.4812L363.156 73.0451L363.316 70.8148C363.316 70.8148 387.889 59.5822 395.815 46.0294Z" fill="white" style="fill:white;fill-opacity:1;"/>
<path d="M194.476 151.931L194.363 151.946L153.193 157.051L140.858 156.628L139.234 155.211L133.553 156.519C121.98 157.026 105.976 162.523 105.815 162.578L103.874 163.25L112.233 154.517L135.562 143.809L135.377 141.213L103.031 113.958L128.208 103.558L167.007 118.907L262.083 77.48L267.49 72.0004L299.756 57.049C315.489 48.4078 331.08 44.0877 331.236 44.0451L331.457 44.0296L359.912 48.9805C383.023 42.6688 395.817 45.5094 395.949 45.5414L396.607 45.6919L396.264 46.277C388.706 59.2016 366.657 69.8135 363.809 71.1417L363.643 73.3851L354.919 76.9669L350.913 77.5616L300.954 100.363L290.953 107.74L208.152 143.026L194.485 151.928L194.476 151.931ZM141.252 155.643L153.153 156.061L194.124 150.973L207.672 142.153L290.497 106.846L300.489 99.4729L350.623 76.5991L354.711 75.9924L362.688 72.6975L362.843 70.4803L363.12 70.3658C363.353 70.248 386.895 59.3761 395.023 46.3893C392.098 45.9096 379.962 44.5287 360.065 49.9779L359.844 49.9933L331.397 45.0387C330.002 45.4313 315.184 49.713 300.208 57.9334L267.997 72.862L262.581 78.3454L167.028 119.98L128.22 104.635L104.938 114.252L136.354 140.723L136.611 144.436L112.735 155.392L107.376 161.014C111.993 159.539 124.138 155.94 133.408 155.54L139.491 154.131L141.242 155.647L141.252 155.643Z" fill="black" style="fill:black;fill-opacity:1;"/>
<path d="M339.125 57.5893L337.994 57.9696L332.951 44.9488L334.081 44.5684L339.125 57.5893Z" fill="black" style="fill:black;fill-opacity:1;"/>
<path d="M338.165 58.1478L338.134 58.15L307.386 61.2437L299.845 57.6829L300.023 57.3281L307.455 60.8362L338.059 57.759L356.951 48.8836L357.122 49.2457L338.165 58.1478Z" fill="black" style="fill:black;fill-opacity:1;"/>
<path d="M338.724 60.1026L307 63.2965L306.948 63.2748L297.076 58.8376L297.246 58.4643L307.06 62.8928L338.608 59.7177L338.734 59.655L360.255 49.2607L360.427 49.6228L338.724 60.1026Z" fill="black" style="fill:black;fill-opacity:1;"/>
<path d="M308.936 81.9179L289.527 89.9355L289.909 90.8598L309.318 82.8422L308.936 81.9179Z" fill="black" style="fill:black;fill-opacity:1;"/>
<path d="M136.234 143.759L135.834 142.842L143.643 139.378L144.291 137.909L113.537 110.397L114.201 109.647L145.503 137.647L144.413 140.142L136.234 143.759Z" fill="black" style="fill:black;fill-opacity:1;"/>
<path d="M227.868 125.143L194.916 137.673L186.392 135.687L186.615 134.708L194.848 136.619L227.357 124.272L251.123 104.198L251.767 104.971L227.868 125.143Z" fill="black" style="fill:black;fill-opacity:1;"/>
</g>
<defs>
<linearGradient id="paint0_linear_764_4936" x1="20.9024" y1="205.769" x2="151.221" y2="151.936" gradientUnits="userSpaceOnUse">
<stop stop-color="#FFFF00" stop-opacity="0" style="stop-color:none;stop-opacity:0;"/>
<stop offset="1" stop-color="#A8DEFF" stop-opacity="0.75" style="stop-color:#A8DEFF;stop-color:color(display-p3 0.6588 0.8706 1.0000);stop-opacity:0.75;"/>
</linearGradient>
<linearGradient id="paint1_linear_764_4936" x1="20.9024" y1="205.769" x2="125.749" y2="162.458" gradientUnits="userSpaceOnUse">
<stop stop-color="#FFFF00" stop-opacity="0" style="stop-color:none;stop-opacity:0;"/>
<stop offset="1" stop-color="white" stop-opacity="0.5" style="stop-color:white;stop-opacity:0.5;"/>
</linearGradient>
<linearGradient id="paint2_linear_764_4936" x1="20.9024" y1="205.769" x2="107.126" y2="170.151" gradientUnits="userSpaceOnUse">
<stop stop-color="#FFFF00" stop-opacity="0" style="stop-color:none;stop-opacity:0;"/>
<stop offset="1" stop-color="#FFD88F" stop-opacity="0.5" style="stop-color:#FFD88F;stop-color:color(display-p3 1.0000 0.8471 0.5608);stop-opacity:0.5;"/>
</linearGradient>
<linearGradient id="paint3_linear_764_4936" x1="20.9024" y1="205.769" x2="87.5314" y2="178.245" gradientUnits="userSpaceOnUse">
<stop stop-color="#FFFFF8" stop-opacity="0" style="stop-color:none;stop-opacity:0;"/>
<stop offset="1" stop-color="#FFC585" stop-opacity="0.4" style="stop-color:#FFC585;stop-color:color(display-p3 1.0000 0.7725 0.5216);stop-opacity:0.4;"/>
</linearGradient>
<clipPath id="clip0_764_4936">
<rect width="408.34" height="89" fill="white" style="fill:white;fill-opacity:1;" transform="translate(0.476562 156.322) rotate(-22.4447)"/>
</clipPath>
</defs>
</svg>
