<svg width="416" height="217" viewBox="0 0 416 217" fill="none" xmlns="http://www.w3.org/2000/svg">
<g clip-path="url(#clip0_764_4962)">
<path d="M152.598 141.729L18.7343 186.031L16.5594 179.631L149.703 133.207L152.598 141.729Z" fill="url(#paint0_linear_764_4962)" style=""/>
<path d="M126.503 150.595L18.7343 186.031L16.5594 179.631L123.608 142.074L126.503 150.595Z" fill="url(#paint1_linear_764_4962)" style=""/>
<path d="M107.425 157.078L18.7343 186.031L16.5594 179.631L104.529 148.557L107.425 157.078Z" fill="url(#paint2_linear_764_4962)" style=""/>
<path d="M87.3519 163.899L18.7343 186.031L16.5594 179.631L84.4564 155.377L87.3519 163.899Z" fill="url(#paint3_linear_764_4962)" style=""/>
<path d="M402.034 47.4681C402.034 47.4681 389.679 43.7449 365.99 48.6258L340.707 42.5363L337.806 41.8321C337.806 41.8321 322.061 45.0699 305.642 52.761L272.484 65.612L266.821 70.7046L168.994 106.057L131.259 88.2509L106.442 96.6832L136.535 125.536L136.553 128.698L112.257 138.01L105.022 144.692C105.022 144.692 121.44 140.17 133.142 140.418L139.145 139.435L140.735 141.007L152.759 142.202L194.171 139.748L208.356 131.76L293.249 101.858L303.646 95.1573L355.078 75.5689L359.187 75.2288L367.709 72.3333L368.012 70.1179C368.012 70.1179 393.255 60.4846 402.034 47.4681Z" fill="#F4F5F4" style="fill:#F4F5F4;fill:color(display-p3 0.9569 0.9608 0.9569);fill-opacity:1;"/>
<path d="M194.317 140.238L194.203 140.245L152.79 142.698L140.507 141.486L138.977 139.967L133.224 140.908C121.642 140.672 105.319 145.13 105.155 145.176L103.175 145.722L112.077 137.543L136.045 128.353L136.027 125.751L105.495 96.4769L131.287 87.7132L169.022 105.52L266.559 70.2761L272.307 65.1545L305.465 52.3035C321.72 44.6892 337.557 41.3782 337.715 41.3456L337.936 41.3443L366.016 48.1102C389.484 43.2939 402.069 46.9493 402.199 46.9897L402.845 47.182L402.466 47.7439C394.094 60.1572 371.41 69.333 368.482 70.4757L368.173 72.7038L359.238 75.7187L355.201 76.0552L303.882 95.605L293.429 102.325L208.535 132.227L194.326 140.235L194.317 140.238ZM140.963 140.528L152.813 141.708L194.026 139.259L208.113 131.325L293.031 101.404L303.475 94.6871L354.974 75.0762L359.093 74.7329L367.264 71.9564L367.561 69.7537L367.845 69.6572C368.085 69.5546 392.276 60.2151 401.22 47.7764C398.332 47.1101 386.309 44.9535 366.104 49.1153L365.882 49.1166L337.812 42.3475C336.394 42.6498 321.332 45.9722 305.86 53.2151L272.758 66.0469L267.001 71.1716L168.975 106.592L131.23 88.7887L107.379 96.8929L137.033 125.324L137.051 129.046L112.522 138.448L106.813 143.714C111.515 142.539 123.866 139.726 133.143 139.922L139.303 138.906L140.954 140.531L140.963 140.528Z" fill="black" style="fill:black;fill-opacity:1;"/>
<path d="M344.718 55.368L343.566 55.6751L339.368 42.3575L340.52 42.0504L344.718 55.368Z" fill="black" style="fill:black;fill-opacity:1;"/>
<path d="M343.725 55.8638L343.693 55.864L312.81 56.9791L305.513 52.942L305.714 52.5993L312.906 56.5769L343.644 55.469L363.067 47.8237L363.214 48.196L343.725 55.8638Z" fill="black" style="fill:black;fill-opacity:1;"/>
<path d="M344.157 57.8505L312.294 59.0029L312.243 58.9779L302.676 53.9167L302.87 53.5551L312.38 58.604L344.066 57.4589L344.196 57.4044L366.34 48.412L366.487 48.7843L344.157 57.8505Z" fill="black" style="fill:black;fill-opacity:1;"/>
<path d="M313.032 77.7101L293.148 84.4663L293.47 85.4131L313.353 78.657L313.032 77.7101Z" fill="black" style="fill:black;fill-opacity:1;"/>
<path d="M136.718 128.346L136.378 127.406L144.393 124.45L145.134 123.026L116.208 93.5973L116.919 92.8911L146.36 122.842L145.112 125.262L136.718 128.346Z" fill="black" style="fill:black;fill-opacity:1;"/>
<path d="M229.358 115.647L195.67 126.037L187.291 123.509L187.576 122.546L195.67 124.981L228.904 114.745L253.909 96.2363L254.501 97.0487L229.358 115.647Z" fill="black" style="fill:black;fill-opacity:1;"/>
</g>
<defs>
<linearGradient id="paint0_linear_764_4962" x1="17.6468" y1="182.831" x2="151.15" y2="137.468" gradientUnits="userSpaceOnUse">
<stop stop-color="#FFFF00" stop-opacity="0" style="stop-color:none;stop-opacity:0;"/>
<stop offset="1" stop-color="#A8DEFF" stop-opacity="0.75" style="stop-color:#A8DEFF;stop-color:color(display-p3 0.6588 0.8706 1.0000);stop-opacity:0.75;"/>
</linearGradient>
<linearGradient id="paint1_linear_764_4962" x1="17.6468" y1="182.831" x2="125.056" y2="146.335" gradientUnits="userSpaceOnUse">
<stop stop-color="#FFFF00" stop-opacity="0" style="stop-color:none;stop-opacity:0;"/>
<stop offset="1" stop-color="white" stop-opacity="0.5" style="stop-color:white;stop-opacity:0.5;"/>
</linearGradient>
<linearGradient id="paint2_linear_764_4962" x1="17.6468" y1="182.831" x2="105.977" y2="152.817" gradientUnits="userSpaceOnUse">
<stop stop-color="#FFFF00" stop-opacity="0" style="stop-color:none;stop-opacity:0;"/>
<stop offset="1" stop-color="#FFD88F" stop-opacity="0.5" style="stop-color:#FFD88F;stop-color:color(display-p3 1.0000 0.8471 0.5608);stop-opacity:0.5;"/>
</linearGradient>
<linearGradient id="paint3_linear_764_4962" x1="17.6468" y1="182.831" x2="85.9041" y2="159.638" gradientUnits="userSpaceOnUse">
<stop stop-color="#FFFFF8" stop-opacity="0" style="stop-color:none;stop-opacity:0;"/>
<stop offset="1" stop-color="#FFC585" stop-opacity="0.4" style="stop-color:#FFC585;stop-color:color(display-p3 1.0000 0.7725 0.5216);stop-opacity:0.4;"/>
</linearGradient>
<clipPath id="clip0_764_4962">
<rect width="408.34" height="89" fill="white" style="fill:white;fill-opacity:1;" transform="translate(0.434692 132.175) rotate(-18.7671)"/>
</clipPath>
</defs>
</svg>
