<svg width="409" height="89" viewBox="0 0 409 89" fill="none" xmlns="http://www.w3.org/2000/svg">
<g clip-path="url(#clip0_764_4910)">
<path d="M141 58L0 56.88V50.12L141 49V58Z" fill="url(#paint0_linear_764_4910)" style=""/>
<path d="M113.44 58L0 56.88V50.12L113.44 49V58Z" fill="url(#paint1_linear_764_4910)" style=""/>
<path d="M93.29 58L0 56.88V50.12L93.29 49V58Z" fill="url(#paint2_linear_764_4910)" style=""/>
<path d="M72.09 58L0 56.88V50.12L72.09 49V58Z" fill="url(#paint3_linear_764_4910)" style=""/>
<path d="M326.5 69H325.5V55H323.5V69H322.5V71H323.5V74H325.5V71H326.5V69Z" fill="white" style="fill:white;fill-opacity:1;"/>
<path d="M325.75 74.25H323.25V71.25H322.25V68.75H323.25V54.75H325.75V68.75H326.75V71.25H325.75V74.25ZM323.75 73.75H325.25V70.75H326.25V69.25H325.25V55.25H323.75V69.25H322.75V70.75H323.75V73.75Z" fill="black" style="fill:black;fill-opacity:1;"/>
<path d="M324.5 85C327.814 85 330.5 82.3137 330.5 79C330.5 75.6863 327.814 73 324.5 73C321.186 73 318.5 75.6863 318.5 79C318.5 82.3137 321.186 85 324.5 85Z" fill="black" style="fill:black;fill-opacity:1;"/>
<path d="M324.5 82C326.157 82 327.5 80.6569 327.5 79C327.5 77.3431 326.157 76 324.5 76C322.843 76 321.5 77.3431 321.5 79C321.5 80.6569 322.843 82 324.5 82Z" fill="white" style="fill:white;fill-opacity:1;"/>
<path d="M202.5 68H201.5V56H199.5V68H198.5V70H199.5V75H201.5V70H202.5V68Z" fill="white" style="fill:white;fill-opacity:1;"/>
<path d="M201.75 75.25H199.25V70.25H198.25V67.75H199.25V55.75H201.75V67.75H202.75V70.25H201.75V75.25ZM199.75 74.75H201.25V69.75H202.25V68.25H201.25V56.25H199.75V68.25H198.75V69.75H199.75V74.75Z" fill="black" style="fill:black;fill-opacity:1;"/>
<path d="M200.5 89C205.471 89 209.5 84.9706 209.5 80C209.5 75.0294 205.471 71 200.5 71C195.529 71 191.5 75.0294 191.5 80C191.5 84.9706 195.529 89 200.5 89Z" fill="black" style="fill:black;fill-opacity:1;"/>
<path d="M200.5 84.5C202.985 84.5 205 82.4853 205 80C205 77.5147 202.985 75.5 200.5 75.5C198.015 75.5 196 77.5147 196 80C196 82.4853 198.015 84.5 200.5 84.5Z" fill="white" style="fill:white;fill-opacity:1;"/>
<path d="M407.5 49C407.5 49 397 41.5 373 38.5L351.02 24.6L348.5 23C348.5 23 332.55 21 314.53 23L279 24.5L272 27.5L168 29.5L138 0.5H111.79L131 37.5L130 40.5L104 41.5L95 45.5C95 45.5 112 46.5 123 50.5L129 51.5L130 53.5L141 58.5L181 69.5L197 66.5L287 65.5L299 62.5L354 60.5L358 61.5H367L368 59.5C368 59.5 395 58.5 407.5 49Z" fill="white" style="fill:white;fill-opacity:1;"/>
<path d="M180.98 70.01L180.87 69.98L140.87 58.98L129.63 53.88L128.67 51.95L122.92 50.99C112.03 47.04 95.14 46.01 94.97 46L92.92 45.88L103.98 41L129.63 40.01L130.45 37.54L110.96 0H138.2L168.2 29L271.89 27.01L278.98 24.01L314.51 22.51C332.35 20.53 348.41 22.49 348.57 22.51L348.78 22.58L373.19 38.02C396.96 41.01 407.7 48.52 407.81 48.6L408.36 48.99L407.82 49.4C395.9 58.46 371.47 59.85 368.33 59.99L367.32 62L357.89 61.98L353.96 61L299.08 63L287.02 66L197.02 67L180.99 70.01H180.98ZM130.37 53.12L141.21 58.05L181.02 68.99L196.91 66.01L286.94 65L298.99 62L354.06 60L358.07 61H366.7L367.69 59.01H367.99C368.25 58.99 394.16 57.93 406.63 49.03C404.11 47.47 393.42 41.56 372.95 39L372.74 38.93L348.34 23.49C346.9 23.32 331.57 21.62 314.59 23.5L279.12 25L272.02 28L167.81 30L137.8 1H112.61L131.54 37.46L130.36 40.99L104.11 42L97.01 45.15C101.84 45.55 114.44 46.86 123.16 50.03L129.32 51.05L130.36 53.12H130.37Z" fill="black" style="fill:black;fill-opacity:1;"/>
<path d="M350.69 38.04L349.5 37.96L349.81 24L351 24.08L350.69 38.04Z" fill="black" style="fill:black;fill-opacity:1;"/>
<path d="M349.59 38.1901L349.56 38.1801L319.96 29.3001L314.35 23.1301L314.65 22.8701L320.18 28.9501L349.64 37.7901L370.49 36.8001L370.51 37.2001L349.59 38.1901Z" fill="black" style="fill:black;fill-opacity:1;"/>
<path d="M349.36 40.2101L318.82 31.0501L318.78 31.0101L311.35 23.1401L311.65 22.8601L319.03 30.7001L349.4 39.8101L349.54 39.8001L373.4 38.4101L373.42 38.8101L349.36 40.2101Z" fill="black" style="fill:black;fill-opacity:1;"/>
<path d="M313.5 49H292.5V50H313.5V49Z" fill="black" style="fill:black;fill-opacity:1;"/>
<path d="M130.27 40.22L130.25 39.22L138.79 39L139.95 37.89L122.03 0.720029L122.93 0.280029L141.17 38.11L139.21 40L130.27 40.22Z" fill="black" style="fill:black;fill-opacity:1;"/>
<path d="M222.07 58L186.83 57L179.71 51.91L180.29 51.09L187.17 56L221.93 57L251.56 47.52L251.86 48.48L222.07 58Z" fill="black" style="fill:black;fill-opacity:1;"/>
</g>
<defs>
<linearGradient id="paint0_linear_764_4910" x1="0" y1="53.5" x2="141" y2="53.5" gradientUnits="userSpaceOnUse">
<stop stop-color="#FFFF00" stop-opacity="0" style="stop-color:none;stop-opacity:0;"/>
<stop offset="1" stop-color="#A8DEFF" stop-opacity="0.75" style="stop-color:#A8DEFF;stop-color:color(display-p3 0.6588 0.8706 1.0000);stop-opacity:0.75;"/>
</linearGradient>
<linearGradient id="paint1_linear_764_4910" x1="0" y1="53.5" x2="113.44" y2="53.5" gradientUnits="userSpaceOnUse">
<stop stop-color="#FFFF00" stop-opacity="0" style="stop-color:none;stop-opacity:0;"/>
<stop offset="1" stop-color="white" stop-opacity="0.5" style="stop-color:white;stop-opacity:0.5;"/>
</linearGradient>
<linearGradient id="paint2_linear_764_4910" x1="0" y1="53.5" x2="93.29" y2="53.5" gradientUnits="userSpaceOnUse">
<stop stop-color="#FFFF00" stop-opacity="0" style="stop-color:none;stop-opacity:0;"/>
<stop offset="1" stop-color="#FFD88F" stop-opacity="0.5" style="stop-color:#FFD88F;stop-color:color(display-p3 1.0000 0.8471 0.5608);stop-opacity:0.5;"/>
</linearGradient>
<linearGradient id="paint3_linear_764_4910" x1="0" y1="53.5" x2="72.09" y2="53.5" gradientUnits="userSpaceOnUse">
<stop stop-color="#FFFFF8" stop-opacity="0" style="stop-color:none;stop-opacity:0;"/>
<stop offset="1" stop-color="#FFC585" stop-opacity="0.4" style="stop-color:#FFC585;stop-color:color(display-p3 1.0000 0.7725 0.5216);stop-opacity:0.4;"/>
</linearGradient>
<clipPath id="clip0_764_4910">
<rect width="408.34" height="89" fill="white" style="fill:white;fill-opacity:1;"/>
</clipPath>
</defs>
</svg>
