<svg width="449" height="339" viewBox="0 0 449 339" fill="none" xmlns="http://www.w3.org/2000/svg">
<g clip-path="url(#clip0_767_5099)">
<path d="M420.898 87.9918C406.85 70.0955 385.897 58.5332 364.298 52.2261C342.239 45.9412 318.871 45.2799 296.191 48.1797C311.772 45.8433 327.753 45.1724 343.452 46.9003C367.812 49.5093 391.894 58.2029 410.953 73.845C415.48 77.5852 419.74 81.584 423.351 86.2629C424.509 87.9071 422.101 89.679 420.893 87.9948L420.898 87.9918Z" fill="#626463" style="fill:#626463;fill:color(display-p3 0.3843 0.3922 0.3882);fill-opacity:1;"/>
<path d="M118.696 260.35C115.888 252.298 107.48 247.743 99.6603 245.625C75.3613 239.55 45.5789 248.058 22.23 255.656C45.6962 247.275 75.3183 237.936 100.219 243.442C103.515 244.219 106.795 245.402 109.805 246.97C114.655 249.586 119.116 253.476 121.285 258.675C121.405 258.98 121.501 259.231 121.617 259.636C121.843 260.436 121.37 261.265 120.575 261.488C119.746 261.723 118.882 261.201 118.699 260.355L118.696 260.35Z" fill="#626463" style="fill:#626463;fill:color(display-p3 0.3843 0.3922 0.3882);fill-opacity:1;"/>
<path d="M317.677 195.295L311.729 193.701L311.676 194.03C311.676 194.03 311.059 197.664 308.871 198.927C307.991 199.435 305.001 201.148 301.62 203.086C298.483 204.883 295.009 206.875 292.55 208.281L292.414 208.359L292.399 208.514C292.324 209.286 291.424 210.313 290.205 211.016C288.987 211.72 287.652 211.983 286.941 211.665L286.8 211.601L278.278 216.555C274.691 218.641 271.509 220.491 270.624 221.003C268.431 222.268 265.016 220.997 264.98 220.983L264.669 220.864L263.075 226.812L253.565 232.303C249.351 234.736 240.976 232.571 231.762 222.252L231.629 222.106L231.442 222.166C231.36 222.193 223.224 224.82 220.874 225.489C219.158 225.98 217.405 225.652 215.674 224.506L215.559 224.426L215.426 224.461C215.379 224.475 210.681 225.805 207.791 225.453L207.709 225.444L207.636 225.486C207.573 225.509 201.623 228.229 197.42 227.962L197.333 227.956L116.428 273.285C116.631 271.772 117.552 267.462 121.59 264.04C126.639 259.758 219.596 205.727 220.534 205.186L220.669 205.108L220.684 204.953C220.691 204.88 221.357 197.711 224.797 194.384L225.019 194.166L191.13 161.607L193.131 161.848L226.665 190.306L226.857 190.049C226.885 190.013 229.65 186.312 233.318 180.756C234.926 178.321 234.684 175.954 234.398 173.209C234.016 169.492 233.537 164.873 237.626 158.124C243.22 148.88 248.703 144.749 250.797 143.408L251.041 143.254C251.041 143.254 251.411 143.04 251.431 143.028L251.597 142.954C253.813 141.813 260.127 139.133 270.926 138.905C278.816 138.739 282.576 141.463 285.604 143.653C287.838 145.272 289.767 146.666 292.68 146.491C299.325 146.092 303.913 145.547 303.959 145.542L304.277 145.504L296.399 102.233L297.19 100.38L308.443 146.008L308.743 145.925C313.344 144.609 319.886 147.617 319.952 147.648L320.094 147.712L320.229 147.634C321.166 147.093 414.437 93.6041 420.67 91.3735C425.655 89.5923 429.845 90.944 431.257 91.5248L351.549 138.926L351.51 139.004C349.646 142.775 344.31 146.571 344.255 146.609L344.182 146.652L344.155 146.737C343.012 149.411 339.514 152.819 339.479 152.853L339.382 152.951L339.393 153.09C339.52 155.163 338.929 156.845 337.645 158.086C335.886 159.789 329.547 165.518 329.483 165.575L329.338 165.708L329.398 165.896C333.727 179.035 331.414 187.37 327.201 189.803L317.69 195.294L317.677 195.295Z" fill="white" style="fill:white;fill-opacity:1;"/>
<path d="M297.107 101.331L308.071 145.785L308.221 146.393L308.822 146.22C313.315 144.932 319.763 147.896 319.821 147.925L320.103 148.054L320.374 147.897C321.312 147.356 414.561 93.8796 420.768 91.6641C425.102 90.1133 428.819 90.9815 430.566 91.5906L351.471 138.624L351.315 138.714L351.236 138.878C349.403 142.582 344.131 146.334 344.077 146.372L343.94 146.472L343.871 146.63C342.751 149.249 339.297 152.611 339.261 152.646L339.06 152.838L339.074 153.115C339.195 155.093 338.634 156.695 337.415 157.879C335.657 159.574 329.319 165.303 329.255 165.36L328.964 165.626L329.089 165.998C333.972 180.831 330.089 187.781 327.026 189.55L317.62 194.98L312.108 193.503L311.467 193.332L311.358 193.985C311.358 193.985 310.762 197.475 308.694 198.669C307.809 199.18 304.803 200.901 301.406 202.848C298.28 204.639 294.826 206.619 292.378 208.019L292.107 208.176L292.077 208.485C292.02 209.059 291.299 210.024 290.033 210.755C288.768 211.485 287.572 211.627 287.046 211.389L286.763 211.261L286.498 211.414C284.058 212.83 280.913 214.659 278.039 216.333C274.482 218.4 271.337 220.23 270.457 220.738C268.394 221.929 265.102 220.712 265.069 220.703L264.446 220.465L264.274 221.106L262.797 226.619L253.391 232.049C250.328 233.818 242.362 233.708 231.963 222.059L231.703 221.765L231.328 221.885C231.246 221.911 223.115 224.536 220.769 225.21C219.137 225.68 217.471 225.357 215.813 224.266L215.581 224.115L215.313 224.193C215.266 224.207 210.626 225.517 207.799 225.178L207.628 225.158L207.473 225.227C207.415 225.26 201.528 227.944 197.403 227.68L197.225 227.672L197.068 227.762L116.786 272.738C117.132 270.92 118.238 267.267 121.748 264.289C126.779 260.024 219.71 206.009 220.648 205.468L220.919 205.311L220.946 204.997C220.952 204.924 221.611 197.863 224.968 194.619L225.419 194.185L224.967 193.752L191.951 162.029L192.974 162.154L226.196 190.348L226.684 190.76L227.068 190.247C227.096 190.21 229.864 186.501 233.537 180.943C235.204 178.418 234.954 176 234.665 173.201C234.283 169.533 233.815 164.97 237.847 158.302C243.409 149.111 248.843 145.016 250.926 143.681L251.126 143.545C251.173 143.518 251.23 143.485 251.313 143.437C251.339 143.422 251.365 143.407 251.391 143.392L251.702 143.233C253.895 142.099 260.167 139.443 270.904 139.216C278.692 139.053 282.413 141.745 285.399 143.91C287.678 145.56 289.646 146.985 292.667 146.804C299.32 146.408 303.913 145.86 303.959 145.854L304.595 145.778L304.482 145.149L296.676 102.281L297.08 101.333M297.261 99.4438L296.079 102.209L303.917 145.253C303.917 145.253 299.369 145.796 292.657 146.198C285.946 146.601 284.641 138.327 270.916 138.612C259.991 138.837 253.602 141.58 251.452 142.69L251.446 142.68C251.446 142.68 251.362 142.728 251.211 142.815C251.159 142.845 251.102 142.878 251.034 142.917C250.966 142.956 250.909 142.99 250.857 143.02C250.701 143.11 250.623 143.155 250.623 143.155L250.629 143.165C248.592 144.473 243.022 148.634 237.364 157.983C230.256 169.726 236.769 174.994 233.064 180.605C229.359 186.216 226.616 189.883 226.616 189.883L193.257 161.574L190.272 161.214L224.583 194.182C221.018 197.629 220.379 204.942 220.379 204.942C220.379 204.942 126.52 259.479 121.392 263.829C116.264 268.178 116.066 273.848 116.066 273.848L197.396 228.281C201.724 228.56 207.753 225.773 207.753 225.773C210.739 226.133 215.507 224.769 215.507 224.769C216.629 225.51 218.573 226.471 220.957 225.789C223.341 225.107 231.535 222.46 231.535 222.46C241.356 233.456 249.791 234.836 253.713 232.572L263.333 227.018L264.874 221.267C264.874 221.267 268.43 222.616 270.774 221.263C272.373 220.34 281.362 215.101 286.82 211.937C287.601 212.291 289.002 212.059 290.356 211.277C291.71 210.495 292.617 209.395 292.7 208.542C297.8 205.611 307.319 200.171 309.022 199.188C311.365 197.835 311.975 194.08 311.975 194.08L317.726 195.621L327.346 190.067C331.268 187.802 334.29 179.807 329.678 165.804C329.678 165.804 336.067 160.031 337.85 158.308C339.632 156.584 339.772 154.42 339.691 153.078C339.691 153.078 343.257 149.631 344.438 146.865C344.438 146.865 349.866 143.037 351.789 139.149L431.916 91.4988C431.916 91.4988 426.906 88.8357 420.576 91.1017C414.245 93.3678 320.085 147.384 320.085 147.384C320.085 147.384 313.432 144.281 308.664 145.645L297.269 99.446L297.261 99.4438Z" fill="black" style="fill:black;fill-opacity:1;"/>
<path d="M274.179 157.783C273.644 157.794 268.978 157.988 262.978 161.452C256.978 164.916 254.533 168.765 254.21 169.299L244.64 176.178L240.616 172.613C235.059 152.487 245.585 143.883 250.371 141.12C257.933 136.753 273.591 137.172 283.366 149.278L283.955 154.834L274.176 157.778L274.179 157.783Z" fill="white" style="fill:white;fill-opacity:1;"/>
<path d="M250.525 141.385C257.983 137.079 273.409 137.492 283.085 149.405L283.638 154.621L274.137 157.481C273.414 157.503 268.755 157.769 262.833 161.188C256.911 164.607 254.437 168.369 253.993 169.091L244.668 175.794L240.895 172.445C235.448 152.583 245.811 144.107 250.535 141.379M250.224 140.864C243.583 144.698 235.196 154.228 240.351 172.779L244.62 176.565L254.435 169.509C254.435 169.509 256.878 165.321 263.128 161.712C269.378 158.104 274.227 158.082 274.227 158.082L284.284 155.054L283.661 149.163C273.759 136.825 257.906 136.429 250.224 140.864Z" fill="black" style="fill:black;fill-opacity:1;"/>
<path d="M301.324 153.896C298.384 158.198 296.595 163.147 294.68 167.961C294.226 169.182 293.379 171.636 292.973 172.87L292.948 172.947L292.889 173.002C292.78 173.065 277.385 186.863 277.265 186.883C270.878 189.231 264.427 191.601 257.81 193.144C254.282 192.084 250.559 191.733 246.853 191.63C243.141 191.467 239.414 191.508 235.699 191.785C243.091 190.815 250.734 190.486 257.986 192.57C263.65 191.001 270.986 188.661 277.043 186.318C276.602 186.648 292.578 172.474 292.479 172.544L292.396 172.676L293.231 170.201C295.248 164.494 297.573 158.694 301.326 153.888L301.324 153.896Z" fill="black" style="fill:black;fill-opacity:1;"/>
<path d="M235.903 191.667L224.695 208.207L247 225.19L266.037 214.2C266.037 214.2 264.467 210.939 257.454 210.821C250.442 210.704 244.31 207.299 240.782 202.392C237.254 197.484 235.903 191.667 235.903 191.667Z" fill="black" style="fill:black;fill-opacity:1;"/>
<path d="M301.189 153.974L321.116 152.538L324.672 180.347L305.635 191.337C305.635 191.337 303.597 188.348 307.001 182.216C310.405 176.084 310.523 169.071 308.037 163.562C305.55 158.053 301.189 153.974 301.189 153.974Z" fill="black" style="fill:black;fill-opacity:1;"/>
<path d="M259.473 195.073C264.062 198.86 269.248 202.346 275.157 203.524C281.075 204.753 287.36 201.999 290.344 196.714C293.952 190.43 293.81 182.679 293.1 175.665C295.141 184.66 294.329 196.893 285.744 202.266C276.845 207.661 265.876 201.834 259.476 195.078L259.473 195.073Z" fill="black" style="fill:black;fill-opacity:1;"/>
<path d="M290.116 169.569C286.878 166.931 282.773 165.391 278.619 165.22C270.393 165.178 261.979 169.945 257.854 177.077C255.952 180.772 255.259 185.117 256.09 189.213C254.704 185.153 255.29 180.55 257.327 176.791C263.427 166.005 280.581 159.67 290.121 169.566L290.116 169.569Z" fill="black" style="fill:black;fill-opacity:1;"/>
<path d="M196.922 228.062C197.432 227.622 197.91 227.102 198.485 226.763L200.203 225.723L203.638 223.636C205.509 222.139 212.076 216.938 213.96 215.426C215.58 214.262 217.224 213.069 218.856 211.926C217.665 213.002 216.451 214.051 215.245 215.115C212.827 217.192 206.536 222.053 203.977 224.127C203.972 224.13 203.951 224.142 203.946 224.145L200.512 226.232L198.793 227.273C198.227 227.628 197.545 227.806 196.919 228.056L196.922 228.062Z" fill="black" style="fill:black;fill-opacity:1;"/>
<path d="M352.129 138.452C351.599 138.869 351.101 139.366 350.514 139.684L348.753 140.652L345.229 142.582C345.229 142.582 345.203 142.597 345.198 142.6C342.082 143.795 334.806 146.781 331.758 147.853C330.234 148.364 328.719 148.892 327.191 149.385C328.997 148.544 330.858 147.713 332.671 146.895C334.877 146.038 342.754 142.914 344.942 142.06L348.466 140.13L350.227 139.162C350.808 138.833 351.491 138.682 352.132 138.458L352.129 138.452Z" fill="black" style="fill:black;fill-opacity:1;"/>
<path d="M208.512 224.682C208.512 224.682 212.438 224.721 214.842 223.618C214.842 223.618 213.897 222.726 212.542 222.64C211.187 222.555 208.512 224.682 208.512 224.682Z" fill="black" style="fill:black;fill-opacity:1;"/>
<path d="M343.011 147.064C343.011 147.064 341.077 150.486 338.924 152.014C338.924 152.014 338.63 150.746 339.228 149.533C339.826 148.32 343.011 147.064 343.011 147.064Z" fill="black" style="fill:black;fill-opacity:1;"/>
</g>
<defs>
<clipPath id="clip0_767_5099">
<rect width="436.871" height="138.449" fill="white" style="fill:white;fill-opacity:1;" transform="translate(0.880371 218.677) rotate(-30)"/>
</clipPath>
</defs>
</svg>
