<svg width="315" height="89" viewBox="0 0 315 89" fill="none" xmlns="http://www.w3.org/2000/svg">
<g clip-path="url(#clip0_768_5119)">
<path d="M233.58 69H232.58V55H230.58V69H229.58V71H230.58V74H232.58V71H233.58V69Z" fill="white" style="fill:white;fill-opacity:1;"/>
<path d="M232.83 74.25H230.33V71.25H229.33V68.75H230.33V54.75H232.83V68.75H233.83V71.25H232.83V74.25ZM230.83 73.75H232.33V70.75H233.33V69.25H232.33V55.25H230.83V69.25H229.83V70.75H230.83V73.75Z" fill="black" style="fill:black;fill-opacity:1;"/>
<path d="M231.58 85C234.894 85 237.58 82.3137 237.58 79C237.58 75.6863 234.894 73 231.58 73C228.266 73 225.58 75.6863 225.58 79C225.58 82.3137 228.266 85 231.58 85Z" fill="black" style="fill:black;fill-opacity:1;"/>
<path d="M231.58 82C233.237 82 234.58 80.6569 234.58 79C234.58 77.3431 233.237 76 231.58 76C229.923 76 228.58 77.3431 228.58 79C228.58 80.6569 229.923 82 231.58 82Z" fill="white" style="fill:white;fill-opacity:1;"/>
<path d="M109.58 68H108.58V56H106.58V68H105.58V70H106.58V75H108.58V70H109.58V68Z" fill="white" style="fill:white;fill-opacity:1;"/>
<path d="M108.83 75.25H106.33V70.25H105.33V67.75H106.33V55.75H108.83V67.75H109.83V70.25H108.83V75.25ZM106.83 74.75H108.33V69.75H109.33V68.25H108.33V56.25H106.83V68.25H105.83V69.75H106.83V74.75Z" fill="black" style="fill:black;fill-opacity:1;"/>
<path d="M107.58 89C112.551 89 116.58 84.9706 116.58 80C116.58 75.0294 112.551 71 107.58 71C102.609 71 98.58 75.0294 98.58 80C98.58 84.9706 102.609 89 107.58 89Z" fill="black" style="fill:black;fill-opacity:1;"/>
<path d="M107.58 84.5C110.065 84.5 112.08 82.4853 112.08 80C112.08 77.5147 110.065 75.5 107.58 75.5C105.095 75.5 103.08 77.5147 103.08 80C103.08 82.4853 105.095 84.5 107.58 84.5Z" fill="white" style="fill:white;fill-opacity:1;"/>
<path d="M314.58 49C314.58 49 304.08 41.5 280.08 38.5L258.1 24.6L255.58 23C255.58 23 239.63 21 221.61 23L186.08 24.5L179.08 27.5L75.08 29.5L45.08 0.5H18.87L38.08 37.5L37.08 40.5L11.08 41.5L2.08002 45.5C2.08002 45.5 19.08 46.5 30.08 50.5L36.08 51.5L37.08 53.5L48.08 58.5L88.08 69.5L104.08 66.5L194.08 65.5L206.08 62.5L261.08 60.5L265.08 61.5H274.08L275.08 59.5C275.08 59.5 302.08 58.5 314.58 49Z" fill="white" style="fill:white;fill-opacity:1;"/>
<path d="M88.06 70.01L87.95 69.98L47.95 58.98L36.71 53.88L35.75 51.95L30 50.99C19.11 47.04 2.22 46.01 2.05 46L0 45.88L11.06 41L36.71 40.01L37.53 37.54L18.04 0H45.28L75.28 29L178.97 27.01L186.06 24.01L221.59 22.51C239.43 20.53 255.49 22.49 255.65 22.51L255.86 22.58L280.27 38.02C304.04 41.01 314.78 48.52 314.89 48.6L315.44 48.99L314.9 49.4C302.98 58.46 278.55 59.85 275.41 59.99L274.4 62L264.97 61.98L261.04 61L206.16 63L194.1 66L104.1 67L88.07 70.01H88.06ZM37.45 53.12L48.29 58.05L88.1 68.99L103.99 66.01L194.02 65L206.07 62L261.14 60L265.15 61H273.78L274.77 59.01H275.07C275.33 58.99 301.24 57.93 313.71 49.03C311.19 47.47 300.5 41.56 280.03 39L279.82 38.93L255.42 23.49C253.98 23.32 238.65 21.62 221.67 23.5L186.2 25L179.1 28L74.89 30L44.88 1H19.69L38.62 37.46L37.44 40.99L11.19 42L4.09 45.15C8.92 45.55 21.52 46.86 30.24 50.03L36.4 51.05L37.44 53.12H37.45Z" fill="black" style="fill:black;fill-opacity:1;"/>
<path d="M257.77 38.04L256.58 37.96L256.89 24L258.08 24.08L257.77 38.04Z" fill="black" style="fill:black;fill-opacity:1;"/>
<path d="M256.67 38.1901L256.64 38.1801L227.04 29.3001L221.43 23.1301L221.73 22.8701L227.26 28.9501L256.72 37.7901L277.57 36.8001L277.59 37.2001L256.67 38.1901Z" fill="black" style="fill:black;fill-opacity:1;"/>
<path d="M256.44 40.2101L225.9 31.0501L225.86 31.0101L218.43 23.1401L218.73 22.8601L226.11 30.7001L256.48 39.8101L256.62 39.8001L280.48 38.4101L280.5 38.8101L256.44 40.2101Z" fill="black" style="fill:black;fill-opacity:1;"/>
<path d="M220.58 49H199.58V50H220.58V49Z" fill="black" style="fill:black;fill-opacity:1;"/>
<path d="M37.3501 40.22L37.33 39.22L45.87 39L47.03 37.89L29.11 0.720029L30.01 0.280029L48.25 38.11L46.2901 40L37.3501 40.22Z" fill="black" style="fill:black;fill-opacity:1;"/>
<path d="M129.15 58L93.91 57L86.79 51.91L87.37 51.09L94.25 56L129.01 57L158.64 47.52L158.94 48.48L129.15 58Z" fill="black" style="fill:black;fill-opacity:1;"/>
</g>
<defs>
<clipPath id="clip0_768_5119">
<rect width="315" height="89" fill="white" style="fill:white;fill-opacity:1;"/>
</clipPath>
</defs>
</svg>
