<?xml version="1.0" encoding="UTF-8"?>
<svg id="Layer_1" data-name="Layer 1" xmlns="http://www.w3.org/2000/svg" viewBox="0 0 24 24">
  <path d="M21,3H3c-1.65,0-3,1.34-3,3v12.01c0,1.65,1.34,3,3,3h18.01c1.65,0,3-1.34,3-3V6c0-1.65-1.34-3-3-3ZM4,18h-2V6h2v12ZM12,18h-6V6h2v10h4v2ZM22.46,9.87c0,.75-.15,1.39-.46,1.91-.31.52-.72.95-1.25,1.28-.53.33-.94.6-1.61.81l-1.08.34c-.48.15-.86.31-1.13.48-.27.17-.46.36-.56.57-.11.21-.18.48-.18.77h5.81s0,1.98,0,1.98h-8v-.99c0-1,.15-1.94.42-2.48.27-.54.66-.99,1.17-1.34.51-.35,1.13-.64,1.87-.86l.95-.3c.41-.13.75-.35,1.03-.55.28-.2.5-.43.65-.71.15-.28.23-.6.23-.96v-.07c0-.56-.19-1.01-.57-1.34-.38-.33-.71-.5-1.37-.5s-1.17.18-1.57.53c-.4.35-.55.91-.55,1.57h-2.25c0-.85.24-1.59.62-2.18.38-.59.9-1.05,1.55-1.36.66-.31,1.39-.47,2.19-.47s1.35.15,2,.46c.65.31,1.16.74,1.54,1.29.37.55.56,1.21.56,1.96v.17Z"/>
</svg>