<?xml version="1.0" encoding="UTF-8"?>
<svg id="Layer_1" data-name="Layer 1" xmlns="http://www.w3.org/2000/svg" viewBox="0 0 24 24">
  <path d="M21,3H3c-1.65,0-3,1.34-3,3v12.01c0,1.65,1.34,3,3,3h18.01c1.65,0,3-1.34,3-3V6c0-1.65-1.34-3-3-3ZM4,18h-2V6h2v12ZM12,18h-6V6h2v10h4v2ZM22.61,14.04c0,.84-.18,1.56-.54,2.18-.36.61-.87,1.08-1.54,1.42s-1.47.5-2.4.5-1.73-.17-2.41-.49c-.67-.33-1.02-.84-1.39-1.44-.36-.6-.33-1.25-.33-2.04v-.16h2.21v.14c0,.57-.04,1.03.34,1.43.38.4.79.62,1.54.62s1.32-.2,1.73-.6.6-.93.6-1.57v-.17c0-.63-.2-1.14-.6-1.51s-.9-.56-1.5-.56c-.33,0-.42,0-.64.07-.21.06-.29.07-.6.2-.18.07-.35.22-.44.35h-2.64v-6.4h8v2h-6l.02,2.71h.49c.11-.15.32-.31.53-.42s.41-.19.72-.25.6-.06,1.02-.06c.7,0,1.34.15,1.92.44.58.29,1.04.73,1.39,1.3s.52,1.28.52,2.12v.2Z"/>
</svg>